---
layout: anime

title: Yojouhan Shinwa Taikei
image: https://i.imgur.com/OwvVzTS.jpg
mal: 7785
anidb: 7243
r720: false
r1080: true

desc: >-
  So this series is one I found when looking for other shows AKFG did any songs for. I saw this and was intrigued by high ratings with a different art style. So I saw Yousei-Raws on Catar's XDCC bot and thought why not put a mux together.
  <br><br>
  My modifications include fixes to the op/ed english lyrics since some of the lines didn't make sense. I moved the subtitles down some since having a vertical of 70 is too damn high. Other fixes include syncing and only adding fonts that were actually being used instead of every episode having all fonts involved

status: Complete
groups: Yousei-Raws, J-pwq, Afro
vidinfo: .mkv, h264 8-bit

size1080: ~2 GB / Episode @ 1080p (1920x1080) [Yousei-Raws]
audio1080a: Japanese 2ch FLAC (Main Dialogue) [Yousei-Raws]
subtitle1: English Dialogue (.ass) [(Afro + CyC Modified) J-pwq]

nyaa1080: https://nyaa.si/view/1024721
anidex1080: https://anidex.info/torrent/135660
at1080: https://animetosho.org/view/cyc-yojouhan-shinwa-taikei-tatami-galaxy-specials-bd.n1024721
ant1080: https://animetorrents.me/torrent-details.php?torid=35271
ab1080: https://animebytes.tv/torrents.php?id=4370&torrentid=359177
abs1080: https://animebytes.tv/torrents.php?id=5595&torrentid=359194
abstype1080: Specials

github: https://github.com/cyc-anime/Yojouhan-Shinwa-Taikei
---
General
Unique ID                                : 189000934948958583644584909368838413419 (0x8E30418A1A6E7F61BD2293C907595C6B)
Complete name                            : [CyC] Yojouhan Shinwa Taikei 01 (BD 1920x1080 x264 FLAC) [F291C923].mkv
Format                                   : Matroska
Format version                           : Version 4 / Version 2
File size                                : 2.63 GiB
Duration                                 : 22 min 51 s
Overall bit rate mode                    : Variable
Overall bit rate                         : 16.5 Mb/s
Movie name                               : Tennis Circle "Cupid"
Encoded date                             : UTC 2018-04-06 23:24:45
Writing application                      : mkvmerge v9.7.1 ('Pandemonium') 64bit
Writing library                          : libebml v1.3.4 + libmatroska v1.4.5
Attachments                              : arial.ttf / ariblk.ttf / ARLRDBD.TTF / astrologypiltstd-1.otf / bear.ttf / berylium.ttf / calligr0.ttf / CHILD.TTF / seasons-spring.ttf / STAMPACT.TTF / veteran typewriter.ttf / antigoni.ttf

Video
ID                                       : 1
Format                                   : AVC
Format/Info                              : Advanced Video Codec
Format profile                           : High@L4.1
Format settings                          : CABAC / 4 Ref Frames
Format settings, CABAC                   : Yes
Format settings, RefFrames               : 4 frames
Codec ID                                 : V_MPEG4/ISO/AVC
Duration                                 : 22 min 51 s
Bit rate                                 : 15.7 Mb/s
Width                                    : 1 920 pixels
Height                                   : 1 080 pixels
Display aspect ratio                     : 16:9
Frame rate mode                          : Constant
Frame rate                               : 23.976 (24000/1001) FPS
Original frame rate                      : 23.809 FPS
Color space                              : YUV
Chroma subsampling                       : 4:2:0
Bit depth                                : 8 bits
Scan type                                : Progressive
Bits/(Pixel*Frame)                       : 0.315
Stream size                              : 2.52 GiB (96%)
Writing library                          : x264 core 104 r1683 62997d6
Encoding settings                        : cabac=1 / ref=4 / deblock=1:-2:-2 / analyse=0x3:0x133 / me=umh / subme=9 / psy=1 / psy_rd=0.70:0.00 / mixed_ref=1 / me_range=24 / chroma_me=1 / trellis=2 / 8x8dct=1 / cqm=0 / deadzone=21,11 / fast_pskip=1 / chroma_qp_offset=-2 / threads=12 / sliced_threads=0 / nr=0 / decimate=0 / interlaced=0 / constrained_intra=0 / bframes=8 / b_pyramid=2 / b_adapt=2 / b_bias=0 / direct=3 / weightb=1 / open_gop=0 / weightp=2 / keyint=250 / keyint_min=23 / scenecut=40 / intra_refresh=0 / rc=2pass / mbtree=0 / bitrate=15668 / ratetol=1.0 / qcomp=0.60 / qpmin=9 / qpmax=22 / qpstep=4 / cplxblur=20.0 / qblur=0.5 / ip_ratio=1.40 / pb_ratio=1.30 / aq=1:0.90
Language                                 : Japanese
Default                                  : Yes
Forced                                   : No

Audio
ID                                       : 2
Format                                   : FLAC
Format/Info                              : Free Lossless Audio Codec
Codec ID                                 : A_FLAC
Duration                                 : 22 min 51 s
Bit rate mode                            : Variable
Bit rate                                 : 671 kb/s
Channel(s)                               : 2 channels
Channel positions                        : Front: L R
Sampling rate                            : 48.0 kHz
Frame rate                               : 11.719 FPS (4096 SPF)
Bit depth                                : 16 bits
Stream size                              : 110 MiB (4%)
Writing library                          : libFLAC 1.2.1 (UTC 2007-09-17)
Language                                 : Japanese
Default                                  : Yes
Forced                                   : No

Text
ID                                       : 3
Format                                   : ASS
Codec ID                                 : S_TEXT/ASS
Codec ID/Info                            : Advanced Sub Station Alpha
Duration                                 : 22 min 48 s
Bit rate                                 : 322 b/s
Count of elements                        : 518
Compression mode                         : Lossless
Stream size                              : 53.9 KiB (0%)
Title                                    : (Afro + CyC Modified) J-pwq
Language                                 : English
Default                                  : Yes
Forced                                   : No

Menu
00:00:00.000                             : :Cold Open
00:03:19.991                             : :Opening
00:04:49.873                             : :Part A
00:09:23.313                             : :Part B
00:21:20.946                             : :Ending